<svg xmlns="http://www.w3.org/2000/svg" xmlns:xlink="http://www.w3.org/1999/xlink" viewBox="0 0 800 800"><defs><style>.cls-1{isolation:isolate;}.cls-2{fill:url(#linear-gradient);}.cls-3{fill:url(#linear-gradient-2);}.cls-4{fill:url(#linear-gradient-3);}.cls-5{fill:url(#linear-gradient-4);}.cls-6{fill:url(#linear-gradient-5);}.cls-7{fill:url(#linear-gradient-6);}.cls-8{fill:none;}.cls-9{fill:url(#linear-gradient-7);}.cls-10{fill:url(#linear-gradient-8);}.cls-11{fill:url(#linear-gradient-9);}.cls-12{fill:url(#linear-gradient-10);}.cls-13{fill:url(#linear-gradient-11);}.cls-14{fill:url(#linear-gradient-12);}.cls-15{fill:url(#linear-gradient-13);}.cls-16{fill:url(#linear-gradient-14);}.cls-17{fill:url(#linear-gradient-15);}.cls-18{mix-blend-mode:multiply;fill:url(#linear-gradient-16);}.cls-19{font-size:36px;fill:#fff;font-family:Nonstop, Nonstop;}</style><linearGradient id="linear-gradient" x1="2590.95" y1="-221.33" x2="2589.72" y2="-210.73" gradientTransform="translate(2322.36 2061.48) rotate(-134.63)" gradientUnits="userSpaceOnUse"><stop offset="0" stop-color="#ff4e1d"/><stop offset="0.67" stop-color="#ff8008"/><stop offset="1" stop-color="#ff9400"/></linearGradient><linearGradient id="linear-gradient-2" x1="2593.31" y1="-95.9" x2="2584.75" y2="-108.54" gradientTransform="translate(2322.36 2061.48) rotate(-134.63)" gradientUnits="userSpaceOnUse"><stop offset="0" stop-color="#b50741"/><stop offset="0.01" stop-color="#b40741"/><stop offset="0.67" stop-color="#820741"/><stop offset="1" stop-color="#6e0741"/></linearGradient><linearGradient id="linear-gradient-3" x1="2592.95" y1="-189.4" x2="2590.1" y2="-202.03" xlink:href="#linear-gradient-2"/><linearGradient id="linear-gradient-4" x1="2655.64" y1="-178.98" x2="2653.61" y2="-162.68" xlink:href="#linear-gradient"/><linearGradient id="linear-gradient-5" x1="2623.48" y1="-30.99" x2="2630.4" y2="-61.55" gradientTransform="translate(2322.36 2061.48) rotate(-134.63)" gradientUnits="userSpaceOnUse"><stop offset="0" stop-color="#92ef00"/><stop offset="0.52" stop-color="#88d500"/><stop offset="1" stop-color="#80c100"/></linearGradient><linearGradient id="linear-gradient-6" x1="2607.37" y1="-83.93" x2="2597.18" y2="-97.38" xlink:href="#linear-gradient"/><linearGradient id="linear-gradient-7" x1="2590.59" y1="-122.27" x2="2602.41" y2="-105.97" xlink:href="#linear-gradient-5"/><linearGradient id="linear-gradient-8" x1="2654.36" y1="-118.07" x2="2654.36" y2="-135.59" xlink:href="#linear-gradient"/><linearGradient id="linear-gradient-9" x1="2589.87" y1="-182.62" x2="2591.09" y2="-142.27" gradientTransform="translate(2322.36 2061.48) rotate(-134.63)" gradientUnits="userSpaceOnUse"><stop offset="0" stop-color="#ffd900"/><stop offset="0.47" stop-color="#ffc400"/><stop offset="1" stop-color="#ffb000"/></linearGradient><linearGradient id="linear-gradient-10" x1="2653.59" y1="-153.83" x2="2651.55" y2="-143.23" xlink:href="#linear-gradient-2"/><linearGradient id="linear-gradient-11" x1="2640.02" y1="-82.94" x2="2652.86" y2="-106.78" xlink:href="#linear-gradient-9"/><linearGradient id="linear-gradient-12" x1="2598.08" y1="-91.34" x2="2622.29" y2="-91.34" xlink:href="#linear-gradient-2"/><linearGradient id="linear-gradient-13" x1="2598" y1="-228.03" x2="2640.8" y2="-226.19" xlink:href="#linear-gradient-9"/><linearGradient id="linear-gradient-14" x1="2648.66" y1="-191.3" x2="2647.03" y2="-217.79" xlink:href="#linear-gradient-5"/><linearGradient id="linear-gradient-15" x1="2621.62" y1="-20" x2="2622.85" y2="-7.17" xlink:href="#linear-gradient-9"/><linearGradient id="linear-gradient-16" x1="2598.1" y1="-90.7" x2="2618.96" y2="-78.01" gradientTransform="translate(2322.36 2061.48) rotate(-134.63)" gradientUnits="userSpaceOnUse"><stop offset="0" stop-color="#fff"/><stop offset="0.33" stop-color="#9a9a9a"/><stop offset="0.62" stop-color="#474747"/><stop offset="0.82" stop-color="#141414"/><stop offset="0.92"/></linearGradient></defs><title>Artboard 1</title><g class="cls-1"><g id="Layer_1" data-name="Layer 1"><g id="_Group_" data-name="&lt;Group&gt;"><g id="_Group_2" data-name="&lt;Group&gt;"><path id="_Path_" data-name="&lt;Path&gt;" class="cls-2" d="M342.65,362.74c.3,3.32.54,6.68.68,10.1.2,4.78.19,9.45.07,14a9,9,0,0,0,2.15-1.52l22-21.69a194.72,194.72,0,0,1-19.84-5.9Z"/><path id="_Path_2" data-name="&lt;Path&gt;" d="M345.32,270.59l-.51.51.53.15C345.33,271,345.33,270.81,345.32,270.59Z"/><path id="_Path_3" data-name="&lt;Path&gt;" class="cls-3" d="M424.47,307.45l9.21-9.1a9.11,9.11,0,0,0,2.68-6.87s-.06-1.34-.1-3.65c0-.6,0-1.34,0-2.14q-4.95-1.42-10-3.16A192.18,192.18,0,0,1,424.47,307.45Z"/><path id="_Path_4" data-name="&lt;Path&gt;" class="cls-4" d="M362,343.68l-14.27,14.09a194.72,194.72,0,0,0,19.84,5.9l5.34-5.28A58.86,58.86,0,0,1,362,343.68Z"/><path id="_Path_5" data-name="&lt;Path&gt;" class="cls-5" d="M330.06,311.15l17-16.81c-.82-6.1-1.39-12.41-1.66-18.91-.06-1.41-.05-2.79-.08-4.19l-.53-.15-24.26,24A77.52,77.52,0,0,1,330.06,311.15Z"/><path id="_Path_6" data-name="&lt;Path&gt;" class="cls-6" d="M423.4,246.68c13.9-5.16,30.49-14,48.53-29.73a195.27,195.27,0,0,0-17.22-9.25A127.07,127.07,0,0,1,419,227.39,171,171,0,0,1,423.4,246.68Z"/><path id="_Path_7" data-name="&lt;Path&gt;" class="cls-7" d="M441.08,244.59,424.24,252c.9,6.43,1.54,13.1,1.83,20,.15,3.55.19,7.05.16,10.51q5,1.74,10,3.16C436.17,277.39,436.9,258.79,441.08,244.59Z"/><path id="_Path_8" data-name="&lt;Path&gt;" class="cls-8" d="M423.3,314.58c.43-2.33.83-4.7,1.17-7.13l-4.2,4.14C421.32,312.59,422.33,313.58,423.3,314.58Z"/><path id="_Path_9" data-name="&lt;Path&gt;" class="cls-9" d="M418.14,279.57c-.07,3.39-.05,6.41,0,8.65l-12,11.81a134.06,134.06,0,0,1,14.11,11.56l4.2-4.14a192.18,192.18,0,0,0,1.76-24.91Q422.2,281.16,418.14,279.57Z"/><path id="_Path_10" data-name="&lt;Path&gt;" class="cls-10" d="M364.09,277.55l17.15-16.93a148.22,148.22,0,0,1-14.68-11l-21.24,21c0,.22,0,.43,0,.65C351.48,273,357.75,275.07,364.09,277.55Z"/><path id="_Path_11" data-name="&lt;Path&gt;" class="cls-11" d="M372.87,358.39l47.4-46.8A134.06,134.06,0,0,0,406.16,300L362,343.68A58.86,58.86,0,0,0,372.87,358.39Z"/><path id="_Path_12" data-name="&lt;Path&gt;" class="cls-12" d="M345.33,271.25c0,1.39,0,2.77.08,4.19.28,6.5.84,12.82,1.66,18.91l17-16.79C357.75,275.07,351.48,273,345.33,271.25Z"/><path id="_Path_13" data-name="&lt;Path&gt;" class="cls-13" d="M386.94,255c6.45-1.16,19.43-2,36.46-8.31A171,171,0,0,0,419,227.39q-4,1.48-7.88,2.74A214.63,214.63,0,0,1,389.72,236c-2.7.59-4.86,1-6.33,1.26s-2.15.36-2.15.36a9.06,9.06,0,0,0-5.06,2.52l-9.63,9.51a148.22,148.22,0,0,0,14.68,11Z"/><path id="_Path_14" data-name="&lt;Path&gt;" class="cls-14" d="M418.17,278.26c0,.45,0,.87,0,1.31q4.06,1.59,8.09,3c0-3.46,0-7-.16-10.51-.29-6.89-.93-13.56-1.83-20l-2.84,1.26C419,261.11,418.43,270.38,418.17,278.26Z"/><path id="_Path_15" data-name="&lt;Path&gt;" class="cls-15" d="M343.33,372.83c-.15-3.42-.38-6.78-.68-10.1l-3.39,3.34L318.05,344.6a164.41,164.41,0,0,1-28.3-19.14l-1.69,1.67a9.07,9.07,0,0,0-.08,12.82l44.75,45.33a8.92,8.92,0,0,0,10.68,1.6C343.52,382.28,343.53,377.61,343.33,372.83Z"/><path id="_Path_16" data-name="&lt;Path&gt;" class="cls-16" d="M330.06,311.15a77.52,77.52,0,0,0-9.51-16.1l-30.8,30.4a164.41,164.41,0,0,0,28.3,19.14l-10.8-10.94Z"/><path id="_Path_17" data-name="&lt;Path&gt;" class="cls-17" d="M465.95,200.5c-.39.38-1.28.16-2.34-.47-.49.45-1,.94-1.47,1.37.64,1.09.87,2,.47,2.39s-1.37.14-2.52-.58c-1.81,1.57-3.61,3.09-5.39,4.49a195.27,195.27,0,0,1,17.22,9.25l.92-.83c-.69-1.13-.93-2.09-.52-2.49s1.42-.14,2.6.62L476.3,213c-.78-1.22-1.07-2.25-.64-2.68s1.49-.11,2.72.71c.62-.59,1.24-1.16,1.87-1.77L467.5,196.37c-.66.66-1.31,1.21-2,1.84C466.13,199.26,466.32,200.13,465.95,200.5Z"/><path id="_Path_18" data-name="&lt;Path&gt;" class="cls-18" d="M441.12,244.63l-19.69,8.72c-2.41,7.8-3,17.08-3.23,25-.05,2-.08,3.87-.08,5.56l18.19-3.29C436.57,271.1,437.67,256.36,441.12,244.63Z"/></g></g><text class="cls-19" transform="translate(291.08 440.26)">drunkster</text></g></g></svg>